<?xml version="1.0" standalone="no"?>
<!DOCTYPE svg PUBLIC "-//W3C//DTD SVG 20010904//EN"
 "http://www.w3.org/TR/2001/REC-SVG-20010904/DTD/svg10.dtd">
<svg version="1.0" xmlns="http://www.w3.org/2000/svg"
 width="512.000000pt" height="512.000000pt" viewBox="0 0 512.000000 512.000000"
 preserveAspectRatio="xMidYMid meet">
<metadata>
Created by potrace 1.14, written by Peter Selinger 2001-2017
</metadata>
<g transform="translate(0.000000,512.000000) scale(0.100000,-0.100000)"
fill="#000000" stroke="none">
<path d="M0 2560 l0 -2560 2560 0 2560 0 0 2560 0 2560 -2560 0 -2560 0 0
-2560z m1190 1473 c6 -16 14 -37 19 -48 5 -11 39 -96 76 -190 37 -93 77 -197
90 -230 l24 -60 -46 -3 c-53 -4 -54 -3 -77 61 l-18 48 -96 -3 -96 -3 -21 -52
-20 -53 -53 0 c-47 0 -51 2 -43 18 10 17 38 90 86 217 15 39 32 84 40 100 7
17 30 74 51 128 29 74 42 97 56 97 11 0 22 -11 28 -27z m496 16 c32 -6 69 -17
82 -25 39 -25 62 -74 61 -129 -1 -58 -22 -101 -67 -131 l-31 -21 64 -98 c36
-54 65 -101 65 -103 0 -3 7 -14 17 -24 15 -17 14 -18 -39 -18 l-55 0 -67 102
c-36 57 -67 105 -68 109 -2 3 -20 9 -40 12 l-38 6 0 -115 0 -114 -50 0 -50 0
0 274 0 275 53 4 c28 2 64 4 78 5 14 1 52 -3 85 -9z m1129 0 c55 -15 99 -51
132 -107 26 -44 28 -55 28 -157 0 -121 -15 -174 -64 -228 -53 -58 -144 -84
-229 -65 -80 18 -133 70 -161 162 -26 85 -27 146 -1 229 43 138 158 203 295
166z m1328 -5 c52 -18 54 -22 32 -64 -13 -26 -18 -28 -41 -20 -44 17 -124 12
-160 -10 -48 -30 -84 -109 -84 -185 0 -151 112 -234 232 -172 l48 24 20 -34
c11 -19 20 -36 20 -38 0 -11 -81 -48 -124 -56 -105 -20 -208 27 -255 116 -21
41 -27 66 -29 142 -5 121 12 173 77 237 75 74 164 94 264 60z m396 -91 c39
-100 91 -230 112 -278 5 -11 13 -31 18 -45 5 -14 18 -49 30 -78 l21 -53 -51 3
-51 3 -20 53 -19 52 -93 0 c-102 0 -106 -2 -126 -63 -14 -44 -23 -49 -78 -45
l-40 3 33 80 c17 44 51 130 75 190 23 61 48 124 55 140 7 17 23 56 35 88 34
87 49 79 99 -50z m-3999 -13 l0 -111 113 3 112 3 3 108 3 107 44 0 45 0 0
-275 0 -275 -45 0 -44 0 -3 123 -3 122 -110 0 -110 0 -3 -122 -3 -123 -49 0
-50 0 0 275 0 275 50 0 50 0 0 -110z m1547 35 c13 -38 38 -117 56 -174 19 -58
39 -107 45 -109 7 -2 12 2 12 10 0 12 83 280 101 326 5 12 17 22 29 22 21 0
36 -43 59 -170 13 -74 36 -186 57 -277 22 -99 21 -103 -31 -103 -39 0 -45 3
-45 21 0 20 -35 206 -46 242 -7 21 -24 23 -24 1 0 -9 -6 -30 -14 -47 -23 -55
-76 -202 -76 -215 0 -27 -38 -11 -50 21 -35 93 -43 113 -51 129 -5 10 -9 23
-9 29 0 6 -6 25 -14 42 -8 18 -17 41 -21 52 -6 15 -11 6 -21 -40 -8 -33 -21
-89 -29 -125 -8 -36 -15 -75 -15 -87 0 -21 -5 -23 -46 -23 l-47 0 6 38 c3 20
15 82 26 137 12 55 28 136 37 180 41 208 38 197 67 193 17 -2 26 -18 44 -73z
m1122 -33 c47 -59 105 -133 130 -164 l46 -58 3 165 2 165 45 0 45 0 0 -280 c0
-325 0 -325 -85 -213 -27 36 -62 80 -76 97 -14 17 -36 47 -49 66 -36 52 -84
110 -92 110 -5 0 -8 -74 -8 -165 l0 -165 -45 0 -45 0 0 275 0 275 23 0 c16 -1
45 -30 106 -108z m485 31 c3 -43 5 -167 4 -275 l-1 -198 -43 0 -44 0 0 275 0
275 39 0 39 0 6 -77z m494 -899 c73 -30 136 -116 130 -177 l-3 -32 -1755 0
-1755 0 -3 26 c-4 32 30 108 62 138 12 11 40 30 62 41 38 19 68 19 1632 20
1418 0 1597 -2 1630 -16z m-3018 -469 l0 -125 -375 0 -375 0 0 125 0 125 375
0 375 0 0 -125z m290 0 l0 -125 -60 0 -60 0 0 125 0 125 60 0 60 0 0 -125z
m300 0 l0 -125 -65 0 -65 0 0 125 0 125 65 0 65 0 0 -125z m290 0 l0 -125 -65
0 -65 0 0 125 0 125 65 0 65 0 0 -125z m288 -2 l3 -123 -66 0 -65 0 0 125 0
126 63 -3 62 -3 3 -122z m284 25 c5 -152 7 -148 -63 -148 l-59 0 0 125 0 125
59 0 59 0 4 -102z m298 -23 l0 -126 -62 3 c-35 2 -62 6 -60 11 1 4 2 59 2 122
l0 115 60 0 60 0 0 -125z m280 0 l0 -125 -65 0 -65 0 0 125 0 125 65 0 65 0 0
-125z m308 -2 l3 -123 -66 0 -65 0 0 125 0 126 63 -3 62 -3 3 -122z m272 2 l0
-125 -60 0 -60 0 0 125 0 125 60 0 60 0 0 -125z m920 0 l0 -125 -375 0 -375 0
0 118 c0 65 3 122 7 125 3 4 172 7 375 7 l368 0 0 -125z m-390 -305 c0 -23 -6
-53 -14 -68 -22 -42 -79 -91 -117 -102 -46 -14 -3191 -13 -3239 0 -65 18 -140
117 -140 185 l0 25 1755 0 1755 0 0 -40z m-2905 -552 c3 -13 10 -32 14 -43 5
-11 16 -40 26 -65 10 -25 21 -54 26 -65 4 -11 33 -85 64 -165 31 -80 67 -171
81 -203 13 -32 24 -63 24 -68 0 -6 -24 -9 -57 -7 l-56 3 -22 60 -21 60 -114 0
-115 0 -20 -62 -20 -63 -57 0 c-57 0 -72 11 -50 36 5 5 17 32 26 59 10 28 24
64 30 80 56 133 176 443 176 454 0 6 13 11 29 11 22 0 31 -6 36 -22z m1295 11
c21 -6 50 -21 65 -33 l28 -22 -23 -40 -23 -41 -49 24 c-115 55 -229 8 -278
-116 -18 -44 -16 -147 3 -191 17 -38 67 -90 106 -110 41 -21 126 -18 158 6 25
18 28 29 31 83 l3 61 -46 0 -45 0 0 50 0 50 95 0 95 0 0 -149 0 -150 -57 -27
c-52 -25 -69 -28 -163 -28 -118 -1 -158 13 -216 76 -57 60 -74 104 -81 216 -8
107 22 197 85 265 67 72 210 106 312 76z m576 -4 c61 -18 124 -79 154 -150 19
-44 21 -65 18 -170 -3 -102 -6 -127 -26 -165 -55 -106 -119 -144 -242 -144
-109 -1 -128 5 -182 56 -69 66 -90 134 -86 273 3 118 20 170 76 237 58 68 180
95 288 63z m-2624 -117 l3 -123 128 -3 127 -3 0 126 0 125 55 0 55 0 0 -315 0
-315 -55 0 -55 0 0 145 0 146 -127 -3 -128 -3 -3 -142 -3 -143 -49 0 -50 0 0
315 0 315 50 0 49 0 3 -122z m1165 79 c76 -100 190 -253 218 -293 17 -24 33
-44 38 -44 4 0 7 86 7 190 l0 190 55 0 55 0 0 -320 0 -320 -22 0 c-14 0 -31
12 -43 29 -11 16 -67 91 -125 166 -58 75 -114 150 -125 166 -38 55 -39 52 -35
-198 l2 -153 -56 0 -56 0 0 315 0 315 28 0 c20 -1 35 -12 59 -43z m1853 -195
l0 -238 34 -33 c29 -28 42 -33 85 -34 60 -1 97 21 123 74 16 29 18 64 18 252
l0 217 50 0 50 0 0 -243 c0 -232 -1 -245 -22 -287 -35 -69 -91 -101 -186 -107
-96 -7 -152 8 -201 52 -56 51 -61 80 -61 349 l0 236 55 0 55 0 0 -238z m960
193 l0 -45 -105 0 -105 0 0 -270 0 -270 -55 0 -55 0 0 270 0 270 -105 0 -105
0 0 45 0 45 265 0 265 0 0 -45z"/>
<path d="M1127 3793 c-14 -43 -28 -86 -32 -95 -6 -16 0 -18 64 -18 39 0 71 3
71 8 -1 23 -58 176 -67 179 -6 2 -22 -31 -36 -74z"/>
<path d="M1570 3891 l0 -81 58 0 c60 1 81 10 101 48 13 25 7 75 -12 90 -7 6
-42 13 -79 17 l-68 7 0 -81z"/>
<path d="M2669 3955 c-80 -44 -94 -279 -20 -349 58 -55 154 -41 204 31 28 39
30 48 30 135 0 103 -13 141 -59 177 -32 25 -114 28 -155 6z"/>
<path d="M4445 3792 c-16 -48 -31 -93 -33 -99 -3 -10 14 -13 67 -13 39 0 71 2
71 5 0 2 -6 22 -14 42 -8 21 -20 60 -28 86 -21 79 -32 76 -63 -21z"/>
<path d="M1328 1458 l-36 -113 75 -3 c42 -2 77 -1 79 1 6 5 -67 227 -75 227
-4 0 -23 -51 -43 -112z"/>
<path d="M3096 1651 c-15 -10 -40 -38 -54 -62 -23 -38 -25 -53 -25 -143 0
-115 19 -167 74 -207 55 -39 154 -25 200 27 40 46 52 87 52 184 0 117 -21 169
-83 200 -51 26 -125 26 -164 1z"/>
</g>
</svg>
